<?xml version="1.0" encoding="UTF-8"?>
<svg id="Layer_1" xmlns="http://www.w3.org/2000/svg" version="1.1" viewBox="0 0 109 57">
  <!-- Generator: Adobe Illustrator 29.7.1, SVG Export Plug-In . SVG Version: 2.1.1 Build 8)  -->
  <defs>
    <style>
      .st0 {
        fill: #fff;
      }

      .st1 {
        stroke: #000;
      }

      .st1, .st2, .st3 {
        stroke-miterlimit: 10;
      }

      .st2 {
        fill: #069494;
      }

      .st2, .st3 {
        stroke: #fff;
        stroke-width: .5px;
      }
    </style>
  </defs>
  <g>
    <path class="st1" d="M3.08,32.41l3.56-3.59-3.61-3.61,1.31-1.31,4.95,4.93-4.9,4.9-1.31-1.31Z"/>
    <path class="st1" d="M27.92,22.17v6.65c0,3.81-3.08,6.92-6.9,6.92v-1.87c2.78-.03,5.03-2.27,5.03-5.05v-6.65h1.87ZM28.25,18.81c0-.71-.58-1.26-1.26-1.26s-1.26.56-1.26,1.26.56,1.26,1.26,1.26,1.26-.58,1.26-1.26Z"/>
    <path class="st1" d="M43.06,35.62h-1.87v-2.05c-1.26,1.34-3.06,2.17-5.03,2.17-3.82,0-6.92-3.11-6.92-6.92s3.11-6.9,6.92-6.9,6.9,3.08,6.9,6.9v6.8ZM41.19,28.82c0-2.78-2.25-5.03-5.03-5.03s-5.05,2.25-5.05,5.03,2.27,5.05,5.05,5.05,5.03-2.27,5.03-5.05Z"/>
    <path class="st1" d="M60.53,35.62v-8.79c0-1.72-1.39-3.08-3.11-3.08s-3.11,1.39-3.11,3.11v8.77h-1.87v-8.79c0-1.72-1.39-3.08-3.11-3.08s-3.08,1.39-3.08,3.11v8.77h-1.87v-8.79c0-2.75,2.22-4.95,4.95-4.95,1.67,0,3.13.81,4.04,2.07.91-1.26,2.38-2.07,4.04-2.07,2.75,0,4.98,2.22,4.98,4.98v8.77h-1.87Z"/>
    <path class="st1" d="M69.65,33.77c.33.05.66.1.99.1,2.45,0,4.5-1.77,4.95-4.12h1.9c-.46,3.39-3.36,5.99-6.85,5.99-3.82,0-6.92-3.11-6.92-6.92s3.11-6.9,6.92-6.9c2.93,0,5.46,1.82,6.44,4.42l-7.43,7.43ZM67.81,32.99l7-7c-.91-1.31-2.45-2.2-4.17-2.2-2.78,0-5.05,2.25-5.05,5.03,0,1.74.88,3.26,2.22,4.17Z"/>
    <path class="st1" d="M92.57,22.05v6.77c0,3.81-3.11,6.92-6.92,6.92-3.49,0-6.39-2.6-6.85-5.99h1.9c.43,2.35,2.5,4.12,4.95,4.12,2.78,0,5.05-2.27,5.05-5.05v-4.88h-5.76c-1.14,2.22-3.46,3.77-6.14,3.79v-1.9c2.35,0,4.3-1.59,4.85-3.79h8.92Z"/>
  </g>
  <g>
    <path class="st2" d="M103.95,26.85c2.87.11,2.6,3.9-.25,3.65-.82-2.82-4.76-2.77-5.58.02-2.85.07-3.06-3.56-.22-3.84.21-4.2,6.04-4.03,6.05.18Z"/>
    <g>
      <circle class="st3" cx="100.92" cy="30.87" r="2.68"/>
      <g>
        <path class="st0" d="M101.24,31.66v-.31l.97-.37v-.02l-.97-.37v-.31l1.33.55v.28l-1.33.55Z"/>
        <path class="st0" d="M99.25,31.11v-.28l1.33-.55v.31l-.97.37v.02l.97.37v.31l-1.33-.55Z"/>
      </g>
    </g>
  </g>
  <text/>
  <rect x="7.8" y="33.61" width="7.93" height="2.51"/>
</svg>