<?xml version="1.0" encoding="UTF-8"?>
<svg id="Layer_1" data-name="Layer 1" xmlns="http://www.w3.org/2000/svg" viewBox="0 0 160 160">
  <defs>
    <style>
      .cls-1, .cls-2 {
        fill: #fff;
      }

      .cls-3, .cls-4, .cls-5, .cls-6 {
        stroke-miterlimit: 10;
      }

      .cls-3, .cls-6 {
        stroke: #000;
      }

      .cls-2 {
        font-family: CascadiaCode-Roman, 'Cascadia Code';
        font-size: 3.24px;
        font-variation-settings: 'wght' 400;
      }

      .cls-4 {
        stroke-width: .5px;
      }

      .cls-4, .cls-5 {
        stroke: #fff;
      }

      .cls-5 {
        stroke-width: .1px;
      }

      .cls-6 {
        font-family: Montserrat-Thin, Montserrat;
        font-size: 6.21px;
        font-weight: 200;
        stroke-width: .1px;
      }
    </style>
  </defs>
  <g>
    <path class="cls-3" d="M24.35,89.16l4.06-4.09-4.12-4.12,1.5-1.5,5.64,5.61-5.58,5.58-1.5-1.5Z"/>
    <path class="cls-3" d="M50.15,77.51v7.57c0,4.35-3.51,7.88-7.86,7.88v-2.13c3.17-.03,5.73-2.59,5.73-5.76v-7.57h2.13ZM50.52,73.68c0-.81-.66-1.44-1.44-1.44s-1.44.63-1.44,1.44.63,1.44,1.44,1.44,1.44-.66,1.44-1.44Z"/>
    <path class="cls-3" d="M67.39,92.82h-2.13v-2.33c-1.44,1.53-3.48,2.47-5.73,2.47-4.35,0-7.89-3.54-7.89-7.88s3.54-7.86,7.89-7.86,7.86,3.51,7.86,7.86v7.74ZM65.26,85.08c0-3.17-2.56-5.73-5.73-5.73s-5.76,2.56-5.76,5.73,2.59,5.76,5.76,5.76,5.73-2.59,5.73-5.76Z"/>
    <path class="cls-3" d="M87.27,92.82v-10.01c0-1.96-1.58-3.51-3.54-3.51s-3.54,1.58-3.54,3.54v9.99h-2.13v-10.01c0-1.96-1.58-3.51-3.54-3.51s-3.51,1.58-3.51,3.54v9.99h-2.13v-10.01c0-3.14,2.53-5.64,5.64-5.64,1.9,0,3.57.92,4.6,2.36,1.04-1.44,2.71-2.36,4.6-2.36,3.14,0,5.67,2.53,5.67,5.67v9.99h-2.13Z"/>
    <path class="cls-3" d="M97.66,90.72c.37.06.75.12,1.12.12,2.79,0,5.12-2.01,5.64-4.69h2.16c-.52,3.86-3.83,6.82-7.8,6.82-4.34,0-7.88-3.54-7.88-7.88s3.54-7.86,7.88-7.86c3.34,0,6.22,2.07,7.34,5.04l-8.46,8.46ZM95.55,89.82l7.97-7.97c-1.04-1.5-2.79-2.5-4.75-2.5-3.17,0-5.75,2.56-5.75,5.73,0,1.99,1.01,3.71,2.53,4.75Z"/>
    <path class="cls-3" d="M123.75,77.36v7.71c0,4.35-3.54,7.88-7.88,7.88-3.97,0-7.28-2.96-7.8-6.82h2.16c.49,2.68,2.85,4.69,5.64,4.69,3.17,0,5.76-2.59,5.76-5.76v-5.55h-6.56c-1.29,2.53-3.94,4.29-6.99,4.32v-2.16c2.68,0,4.89-1.81,5.53-4.32h10.16Z"/>
  </g>
  <text class="cls-6" transform="translate(105.69 100.99) scale(.95 1)"><tspan x="0" y="0">possibilities</tspan></text>
  <g>
    <path class="cls-4" d="M139.2,82.84c3.26.13,2.96,4.44-.29,4.15-.93-3.21-5.41-3.15-6.36.02-3.24.08-3.48-4.05-.25-4.37.24-4.79,6.88-4.59,6.89.2Z"/>
    <g>
      <circle class="cls-4" cx="135.75" cy="87.41" r="3.05"/>
      <g>
        <text class="cls-2" transform="translate(135.88 88.65)"><tspan x="0" y="0">&gt;</tspan></text>
        <text class="cls-2" transform="translate(135.59 88.65) rotate(-180) scale(1 -1)"><tspan x="0" y="0">&gt;</tspan></text>
      </g>
    </g>
  </g>
  <rect x="29.73" y="90.53" width="9.03" height="2.86"/>
  <g>
    <path class="cls-1" d="M102.02,99.6c-.43,1.01-1.64,1.21-2.46.5-.69-.59-1.89-2.11-2.65-2.4-1.09-.43-2.46.25-2.58,1.46,0,.03-.02.14.03.14.43-1.02,1.64-1.2,2.46-.5s2.06,2.44,3.18,2.54c.96.08,1.91-.6,2.04-1.57,0-.04.04-.16-.02-.16ZM100.5,100.29c1.15.09,1.86-1.11,1.14-2.07-.51-.67-1.43-.84-2.2-.53-.46.18-.76.59-1.1.93.14.02.67.67.71.67.31-.28.58-.72,1.03-.76.84-.07,1.31.92.74,1.54l-.33.23ZM95.87,98.59c-1.06-.11-1.83,1.02-1.23,1.94.54.84,1.73,1.04,2.56.53.12-.07.84-.7.83-.78l-.71-.69c-.32.27-.56.71-1.01.76-.86.09-1.34-.9-.77-1.53l.33-.23Z"/>
    <path class="cls-5" d="M102.02,99.6c.06,0,.03.12.02.16-.13.97-1.08,1.66-2.04,1.57-1.12-.1-2.33-1.82-3.18-2.54s-2.03-.52-2.46.5c-.05,0-.03-.1-.03-.14.12-1.21,1.49-1.89,2.58-1.46.76.3,1.95,1.81,2.65,2.4.82.7,2.03.51,2.46-.5Z"/>
    <path class="cls-5" d="M95.87,98.59l-.33.23c-.57.63-.08,1.63.77,1.53.45-.05.69-.49,1.01-.76l.71.69c.01.08-.71.71-.83.78-.83.51-2.02.31-2.56-.53-.6-.93.17-2.05,1.23-1.94Z"/>
    <path class="cls-5" d="M100.5,100.29l.33-.23c.56-.62.09-1.61-.74-1.54-.46.04-.72.48-1.03.76-.05,0-.58-.65-.71-.67.33-.34.64-.74,1.1-.93.77-.31,1.69-.14,2.2.53.72.95.01,2.16-1.14,2.07Z"/>
  </g>
</svg>